# xmcd
#
# Track frame offsets:
#	150
#	14032
#	26320
#	36467
#	54757
#	64610
#	70942
#	89252
#	107720
#	118515
#
# Disc length: 1881 seconds
#
# Revision: 1
# Processed by: cddbd v1.5.2PL0 Copyright (c) Steve Scherf et al.
# Submitted via: dBpowerAMP V4.0
#
DISCID=7e07570a
DTITLE=Various Artist - Holiday's Best vol1  
DYEAR=2002
DGENRE=Holiday
TTITLE0=Bing Crosby/ Hark! The Herald Angels Sing - it Came Upon a Midnight Clear
TTITLE1=Anne Murray/ Silver Bells
TTITLE2=Dean Martin/ Rudolph, The Red-Nosed Reindeer
TTITLE3=Melissa Manchester/ I'll be Home For Christmas
TTITLE4=The Lettermen/ Silent Night, Holy Night
TTITLE5=Nat King Cole/ Joy to The World
TTITLE6=The Beach Boys/ we Three Kings of Orient Are
TTITLE7=Tanya Tucker/ What Child is This
TTITLE8=The Chipmunks/ The Chipmunk Song (Christmas Don't be Late
TTITLE9=Jose Feliciano/ Feliz Navidad (Live)
EXTD=
EXTT0=
EXTT1=
EXTT2=
EXTT3=
EXTT4=
EXTT5=
EXTT6=
EXTT7=
EXTT8=
EXTT9=
PLAYORDER=
